<?xml version="1.0" encoding="UTF-8"?>
<svg id="Layer_2" data-name="Layer 2" xmlns="http://www.w3.org/2000/svg" width="119.62" height="111.16" viewBox="0 0 119.62 111.16">
  <defs>
    <style>
      .cls-1 {
        fill: #db362d;
      }
    </style>
  </defs>
  <g>
    <path class="cls-1" d="M12.61,13.99c.21.8.55,1.1,1.15,1.1s.95-.37.95-1.1V.44h3.9v13.55c0,1.91-.25,2.74-1.22,3.71-.7.7-1.99,1.24-3.61,1.24-1.31,0-2.57-.43-3.37-1.24-.7-.7-1.09-1.43-1.69-3.71l-2.39-9.03c-.21-.8-.55-1.1-1.15-1.1s-.95.37-.95,1.1v13.55H.33V4.95c0-1.91.25-2.74,1.22-3.71.7-.7,1.99-1.24,3.61-1.24,1.31,0,2.57.43,3.37,1.24.7.7,1.09,1.43,1.69,3.71l2.39,9.03h0Z"/>
    <path class="cls-1" d="M64.14,18.5l-4.5-14.08c-.05-.16-.1-.29-.17-.38-.12-.15-.29-.23-.52-.23s-.4.08-.52.23c-.07.09-.12.22-.17.38l-4.5,14.08h-4.03l4.91-15.38c.26-.8.62-1.48,1.09-1.93.8-.78,1.74-1.18,3.22-1.18s2.42.41,3.22,1.18c.46.45.83,1.13,1.09,1.93l4.91,15.38h-4.03Z"/>
    <path class="cls-1" d="M44.23,18.5c2.55,0,3.8-.54,4.78-1.52,1.09-1.08,1.61-2.27,1.61-4.03,0-1.56-.57-3.01-1.44-3.87-1.14-1.13-2.55-1.49-4.86-1.49h-3.23c-1.23,0-1.73-.15-2.11-.53-.27-.26-.39-.65-.39-1.11s.11-.94.44-1.26c.29-.28.68-.42,1.44-.42h9.33V.44h-8.62c-2.55,0-3.8.54-4.78,1.52-1.09,1.08-1.61,2.27-1.61,4.03,0,1.56.57,3.01,1.44,3.87,1.14,1.13,2.55,1.49,4.86,1.49h3.23c1.23,0,1.73.15,2.11.53.27.26.39.65.39,1.11s-.11.94-.44,1.26c-.29.28-.68.42-1.44.42h-9.62l-3.69-11.55c-.26-.8-.62-1.48-1.09-1.93C29.74.41,28.8,0,27.32,0s-2.42.41-3.22,1.18c-.46.45-.83,1.13-1.09,1.93l-4.91,15.38h4.03l4.5-14.08c.05-.16.1-.29.17-.38.12-.15.29-.23.52-.23s.4.08.52.23c.07.09.12.22.17.38l4.5,14.08h11.72Z"/>
    <g>
      <path d="M1.12,24.12h1.2l3.74,6.06v-6.06h.97v7.5h-1.14l-3.8-6.05v6.05h-.97s0-7.5,0-7.5Z"/>
      <path d="M11.48,28.32c.21-.03.35-.12.42-.26.04-.08.06-.2.06-.35,0-.31-.11-.54-.33-.68s-.54-.21-.96-.21c-.48,0-.82.13-1.02.39-.11.14-.19.36-.22.64h-.86c.02-.68.24-1.15.66-1.41s.91-.4,1.46-.4c.64,0,1.16.12,1.57.37.4.25.6.63.6,1.14v3.15c0,.1.02.17.06.23s.12.09.25.09h.14c.05,0,.11-.01.16-.02v.68c-.14.04-.25.07-.33.08-.08,0-.18.01-.31.01-.32,0-.55-.11-.69-.34-.08-.12-.13-.29-.16-.5-.19.25-.46.46-.81.64s-.74.27-1.16.27c-.51,0-.92-.15-1.24-.46s-.48-.69-.48-1.16c0-.51.16-.9.48-1.18s.73-.45,1.25-.52l1.47-.18v-.02ZM9.55,30.8c.19.15.42.23.69.23.32,0,.64-.07.94-.22.51-.25.77-.65.77-1.22v-.74c-.11.07-.26.13-.43.18-.18.05-.35.08-.52.1l-.56.07c-.33.04-.58.11-.75.21-.28.16-.43.41-.43.76,0,.26.1.47.29.63Z"/>
      <path d="M14.55,24.63h.93v1.53h.87v.75h-.87v3.57c0,.19.06.32.19.38.07.04.19.06.36.06h.14s.11,0,.18-.02v.73c-.11.03-.22.05-.33.07-.11.01-.24.02-.37.02-.43,0-.72-.11-.87-.33s-.23-.5-.23-.86v-3.62h-.74v-.75h.74s0-1.53,0-1.53Z"/>
      <path d="M17.27,24.12h.93v1.04h-.93v-1.04ZM17.27,26.18h.93v5.44h-.93v-5.44Z"/>
      <path d="M23.56,26.7c.48.47.73,1.16.73,2.07s-.21,1.61-.64,2.18-1.09.86-1.98.86c-.75,0-1.34-.25-1.78-.76s-.66-1.19-.66-2.05c0-.92.23-1.65.69-2.19.46-.54,1.08-.82,1.87-.82.7,0,1.29.23,1.77.7h0ZM22.99,30.34c.22-.46.34-.97.34-1.54,0-.51-.08-.92-.24-1.24-.26-.5-.7-.75-1.32-.75-.56,0-.96.21-1.21.64s-.38.95-.38,1.55.13,1.07.38,1.45.65.58,1.2.58c.6,0,1.02-.23,1.24-.69h-.01Z"/>
      <path d="M25.41,26.16h.87v.78c.26-.32.53-.55.82-.69.29-.14.61-.21.96-.21.78,0,1.3.27,1.57.81.15.3.22.72.22,1.27v3.51h-.93v-3.45c0-.33-.05-.6-.15-.81-.16-.34-.46-.51-.89-.51-.22,0-.4.02-.54.07-.25.08-.47.22-.66.45-.15.18-.25.37-.3.56-.05.19-.07.47-.07.82v2.86h-.92v-5.47h.02Z"/>
      <path d="M34.16,28.32c.21-.03.35-.12.42-.26.04-.08.06-.2.06-.35,0-.31-.11-.54-.33-.68s-.54-.21-.96-.21c-.48,0-.82.13-1.02.39-.11.14-.19.36-.22.64h-.86c.02-.68.24-1.15.66-1.41.42-.26.91-.4,1.46-.4.64,0,1.16.12,1.57.37.4.25.6.63.6,1.14v3.15c0,.1.02.17.06.23s.12.09.25.09h.14s.11-.01.16-.02v.68c-.14.04-.25.07-.33.08-.08,0-.18.01-.31.01-.32,0-.55-.11-.69-.34-.08-.12-.13-.29-.16-.5-.19.25-.46.46-.81.64s-.74.27-1.16.27c-.51,0-.92-.15-1.24-.46s-.48-.69-.48-1.16c0-.51.16-.9.48-1.18s.73-.45,1.25-.52l1.47-.18v-.02ZM32.22,30.8c.19.15.42.23.69.23.32,0,.64-.07.94-.22.51-.25.77-.65.77-1.22v-.74c-.11.07-.26.13-.43.18-.18.05-.35.08-.52.1l-.56.07c-.33.04-.58.11-.75.21-.28.16-.43.41-.43.76,0,.26.1.47.29.63Z"/>
      <path d="M37.07,24.12h.92v7.5h-.92v-7.5Z"/>
      <path d="M44,24.12h1.15l2.72,7.5h-1.11l-.76-2.25h-2.97l-.81,2.25h-1.04l2.82-7.5ZM45.67,28.55l-1.14-3.31-1.21,3.31h2.35Z"/>
      <path d="M52.05,26.31c.36.18.64.42.83.71.18.28.3.6.37.96.05.25.08.65.08,1.21h-3.98c.02.56.15,1,.39,1.34s.62.5,1.13.5c.48,0,.86-.16,1.14-.48.16-.18.27-.4.34-.64h.9c-.02.2-.1.42-.24.67s-.28.45-.45.6c-.28.27-.62.46-1.03.55-.22.05-.47.08-.75.08-.68,0-1.25-.25-1.72-.74s-.71-1.19-.71-2.08.24-1.59.71-2.14,1.09-.82,1.86-.82c.39,0,.76.09,1.12.27h0ZM52.38,28.45c-.04-.4-.12-.72-.26-.95-.25-.44-.67-.66-1.25-.66-.42,0-.77.15-1.05.46s-.43.69-.45,1.16h3.01Z"/>
      <path d="M54.51,26.16h.87v.94c.07-.18.25-.41.53-.67s.6-.4.96-.4h.09s.11.01.21.02v.97s-.1-.02-.15-.02h-.15c-.46,0-.82.15-1.07.45s-.37.64-.37,1.03v3.15h-.92s0-5.47,0-5.47Z"/>
      <path d="M61.93,26.7c.48.47.73,1.16.73,2.07s-.21,1.61-.64,2.18-1.09.86-1.98.86c-.75,0-1.34-.25-1.78-.76s-.66-1.19-.66-2.05c0-.92.23-1.65.69-2.19s1.08-.82,1.87-.82c.7,0,1.29.23,1.77.7h0ZM61.36,30.34c.22-.46.34-.97.34-1.54,0-.51-.08-.92-.24-1.24-.26-.5-.7-.75-1.32-.75-.56,0-.96.21-1.21.64s-.38.95-.38,1.55.13,1.07.38,1.45.65.58,1.2.58c.6,0,1.02-.23,1.24-.69h-.01Z"/>
      <path d="M63.78,26.16h.87v.78c.26-.32.53-.55.82-.69.29-.14.61-.21.96-.21.78,0,1.3.27,1.57.81.15.3.22.72.22,1.27v3.51h-.93v-3.45c0-.33-.05-.6-.15-.81-.16-.34-.46-.51-.89-.51-.22,0-.4.02-.54.07-.25.08-.47.22-.66.45-.15.18-.25.37-.3.56-.05.19-.07.47-.07.82v2.86h-.92v-5.47h.02Z"/>
      <path d="M72.53,28.32c.21-.03.35-.12.42-.26.04-.08.06-.2.06-.35,0-.31-.11-.54-.33-.68s-.54-.21-.96-.21c-.48,0-.82.13-1.02.39-.11.14-.19.36-.22.64h-.86c.02-.68.24-1.15.66-1.41s.91-.4,1.46-.4c.64,0,1.16.12,1.57.37.4.25.6.63.6,1.14v3.15c0,.1.02.17.06.23s.12.09.25.09h.14c.05,0,.11-.01.16-.02v.68c-.14.04-.25.07-.33.08-.08,0-.18.01-.31.01-.32,0-.55-.11-.69-.34-.08-.12-.13-.29-.16-.5-.19.25-.46.46-.81.64s-.74.27-1.16.27c-.51,0-.92-.15-1.24-.46s-.48-.69-.48-1.16c0-.51.16-.9.48-1.18s.73-.45,1.25-.52l1.47-.18v-.02ZM70.6,30.8c.19.15.42.23.69.23.32,0,.64-.07.94-.22.51-.25.77-.65.77-1.22v-.74c-.11.07-.26.13-.43.18-.18.05-.35.08-.52.1l-.56.07c-.33.04-.58.11-.75.21-.28.16-.43.41-.43.76,0,.26.1.47.29.63Z"/>
      <path d="M76.33,26.16v3.63c0,.28.04.51.13.68.16.33.46.49.89.49.62,0,1.05-.29,1.27-.86.12-.31.18-.73.18-1.26v-2.69h.92v5.47h-.87v-.81c-.11.21-.25.38-.43.53-.34.29-.76.43-1.25.43-.76,0-1.29-.26-1.56-.78-.15-.28-.23-.65-.23-1.12v-3.72h.95Z"/>
      <path d="M81.41,24.63h.93v1.53h.87v.75h-.87v3.57c0,.19.06.32.19.38.07.04.19.06.36.06h.14c.05,0,.11,0,.18-.02v.73c-.11.03-.22.05-.33.07-.11.01-.24.02-.37.02-.43,0-.72-.11-.87-.33s-.23-.5-.23-.86v-3.62h-.74v-.75h.74s0-1.53,0-1.53Z"/>
      <path d="M84.14,24.12h.93v1.04h-.93v-1.04ZM84.14,26.18h.93v5.44h-.93v-5.44Z"/>
      <path d="M90.07,26.45c.39.3.62.81.7,1.55h-.89c-.05-.34-.18-.62-.37-.84s-.51-.33-.93-.33c-.59,0-1,.29-1.26.86-.16.37-.24.83-.24,1.37s.12,1.01.35,1.38c.23.37.6.56,1.09.56.38,0,.68-.12.91-.35.22-.23.38-.55.46-.95h.89c-.1.72-.36,1.25-.77,1.59-.41.33-.93.5-1.57.5-.71,0-1.29-.26-1.71-.78s-.64-1.18-.64-1.96c0-.96.23-1.71.7-2.24.47-.53,1.06-.8,1.78-.8.62,0,1.12.15,1.5.45h0Z"/>
      <path d="M92.23,29.91c.03.31.11.54.23.71.24.3.65.44,1.23.44.35,0,.65-.07.92-.22.26-.15.4-.38.4-.69,0-.23-.11-.41-.32-.54-.13-.08-.4-.16-.8-.26l-.74-.18c-.47-.12-.82-.25-1.05-.39-.4-.25-.6-.59-.6-1.03,0-.52.19-.94.57-1.26s.89-.48,1.52-.48c.83,0,1.44.24,1.81.73.23.31.34.64.34.99h-.87c-.02-.21-.09-.39-.23-.56-.22-.24-.59-.36-1.12-.36-.36,0-.62.07-.81.2-.18.13-.27.31-.27.52,0,.24.12.43.36.57.14.08.34.16.61.22l.62.15c.67.16,1.12.31,1.35.46.36.23.54.6.54,1.11s-.19.91-.56,1.26c-.37.35-.94.53-1.71.53-.82,0-1.41-.18-1.75-.55-.34-.37-.53-.83-.55-1.37,0,0,.88,0,.88,0Z"/>
      <path d="M102.75,28.32c.21-.03.35-.12.42-.26.04-.08.06-.2.06-.35,0-.31-.11-.54-.33-.68s-.54-.21-.96-.21c-.48,0-.82.13-1.02.39-.11.14-.19.36-.22.64h-.86c.02-.68.24-1.15.66-1.41s.91-.4,1.46-.4c.64,0,1.16.12,1.57.37.4.25.6.63.6,1.14v3.15c0,.1.02.17.06.23s.12.09.25.09h.14c.05,0,.11-.01.16-.02v.68c-.14.04-.25.07-.33.08-.08,0-.18.01-.31.01-.32,0-.55-.11-.69-.34-.08-.12-.13-.29-.16-.5-.19.25-.46.46-.81.64s-.74.27-1.16.27c-.51,0-.92-.15-1.24-.46s-.48-.69-.48-1.16c0-.51.16-.9.48-1.18s.73-.45,1.25-.52l1.47-.18v-.02ZM100.82,30.8c.19.15.42.23.69.23.32,0,.64-.07.94-.22.51-.25.77-.65.77-1.22v-.74c-.11.07-.26.13-.43.18-.18.05-.35.08-.52.1l-.56.07c-.33.04-.58.11-.75.21-.28.16-.43.41-.43.76,0,.26.1.47.29.63Z"/>
      <path d="M105.64,26.16h.87v.78c.26-.32.53-.55.82-.69.29-.14.61-.21.96-.21.78,0,1.3.27,1.57.81.15.3.22.72.22,1.27v3.51h-.93v-3.45c0-.33-.05-.6-.15-.81-.16-.34-.46-.51-.89-.51-.22,0-.4.02-.54.07-.25.08-.47.22-.66.45-.15.18-.25.37-.3.56-.05.19-.07.47-.07.82v2.86h-.92v-5.47h.02Z"/>
      <path d="M114.46,26.32c.16.1.35.28.55.54v-2.76h.88v7.53h-.83v-.76c-.21.34-.47.58-.76.73s-.63.22-1,.22c-.61,0-1.13-.26-1.58-.77-.44-.51-.67-1.19-.67-2.04,0-.8.2-1.49.61-2.07s.98-.88,1.74-.88c.42,0,.77.09,1.05.27h.01ZM112.4,30.42c.25.4.64.59,1.19.59.42,0,.77-.18,1.04-.55s.41-.89.41-1.58-.14-1.2-.42-1.53-.63-.5-1.04-.5c-.46,0-.83.18-1.12.53s-.43.88-.43,1.56c0,.58.12,1.08.37,1.47h0Z"/>
      <path d="M1.79,41.75c.02.43.12.77.29,1.04.32.5.9.75,1.72.75.37,0,.7-.05,1-.16.58-.21.88-.59.88-1.13,0-.41-.12-.7-.37-.87s-.64-.32-1.18-.44l-.98-.23c-.64-.15-1.1-.31-1.36-.5-.46-.31-.69-.78-.69-1.4,0-.67.23-1.23.68-1.66s1.1-.65,1.93-.65c.77,0,1.42.19,1.95.57.53.38.8.99.8,1.82h-.96c-.05-.4-.15-.71-.31-.92-.3-.39-.8-.59-1.51-.59-.57,0-.99.13-1.24.38s-.38.54-.38.88c0,.37.15.64.45.81.19.11.63.25,1.32.41l1.02.24c.49.12.87.27,1.14.47.46.35.69.86.69,1.53,0,.83-.29,1.42-.88,1.78s-1.27.54-2.05.54c-.91,0-1.62-.24-2.14-.71-.51-.47-.77-1.12-.76-1.92h.96l-.02-.04Z"/>
      <path d="M7.9,38.73h.9v.72c.18-.25.39-.44.6-.58.31-.2.68-.31,1.1-.31.62,0,1.15.24,1.58.71.43.47.65,1.15.65,2.03,0,1.19-.31,2.04-.94,2.55-.4.32-.86.48-1.38.48-.41,0-.76-.09-1.04-.27-.16-.1-.35-.28-.55-.53v2.79h-.92v-7.62.03ZM11.35,43.02c.29-.36.43-.9.43-1.61,0-.44-.06-.81-.19-1.12-.24-.6-.68-.9-1.31-.9s-1.08.32-1.31.95c-.13.34-.19.77-.19,1.3,0,.42.06.78.19,1.08.24.56.68.85,1.31.85.43,0,.79-.18,1.07-.54h0Z"/>
      <path d="M16.72,40.86c.21-.03.35-.12.42-.26.04-.08.06-.2.06-.35,0-.31-.11-.54-.33-.68s-.54-.21-.96-.21c-.48,0-.82.13-1.02.39-.11.14-.19.36-.22.64h-.86c.02-.68.24-1.15.66-1.41s.91-.4,1.46-.4c.64,0,1.16.12,1.57.37.4.25.6.63.6,1.14v3.15c0,.1.02.17.06.23.04.06.12.09.25.09h.14s.11,0,.16-.02v.68c-.14.04-.25.07-.33.08-.08,0-.18,0-.31,0-.32,0-.55-.11-.69-.34-.08-.12-.13-.29-.16-.5-.19.25-.46.46-.81.64s-.74.27-1.16.27c-.51,0-.92-.15-1.24-.46-.32-.31-.48-.69-.48-1.16,0-.51.16-.9.48-1.18s.73-.45,1.25-.52l1.47-.18v-.02ZM14.78,43.35c.19.15.42.23.69.23.32,0,.64-.07.94-.22.51-.25.77-.65.77-1.22v-.74c-.11.07-.26.13-.43.18-.18.05-.35.08-.52.1l-.56.07c-.33.04-.58.11-.75.21-.28.16-.43.41-.43.76,0,.26.1.47.29.63Z"/>
      <path d="M23.22,39c.39.3.62.81.7,1.55h-.89c-.05-.34-.18-.62-.37-.84s-.51-.33-.93-.33c-.59,0-1,.29-1.26.86-.16.37-.24.83-.24,1.37s.12,1.01.35,1.38c.23.37.6.56,1.09.56.38,0,.68-.12.91-.35.22-.23.38-.55.46-.95h.89c-.1.72-.36,1.25-.77,1.59-.41.33-.93.5-1.57.5-.71,0-1.29-.26-1.71-.78s-.64-1.18-.64-1.96c0-.96.23-1.71.7-2.24.47-.53,1.06-.8,1.78-.8.62,0,1.12.15,1.5.45h0Z"/>
      <path d="M28.21,38.86c.36.18.64.42.83.71.18.28.3.6.37.96.05.25.08.65.08,1.21h-3.98c.02.56.15,1,.39,1.34s.62.5,1.13.5c.48,0,.86-.16,1.14-.48.16-.18.27-.4.34-.64h.9c-.02.2-.1.42-.24.67s-.28.45-.45.6c-.28.27-.62.46-1.03.55-.22.05-.47.08-.75.08-.68,0-1.25-.25-1.72-.74s-.71-1.19-.71-2.08.24-1.59.71-2.14,1.09-.82,1.86-.82c.39,0,.76.09,1.12.27h.01ZM28.54,41c-.04-.4-.12-.72-.26-.95-.25-.44-.67-.66-1.25-.66-.42,0-.77.15-1.05.46s-.43.69-.45,1.16h3.01Z"/>
      <path d="M35.28,36.67h1.15l2.72,7.5h-1.11l-.76-2.25h-2.97l-.81,2.25h-1.04l2.82-7.5ZM36.95,41.1l-1.14-3.31-1.21,3.31h2.35Z"/>
      <path d="M42.96,38.87c.16.1.35.28.55.54v-2.76h.88v7.53h-.83v-.76c-.21.34-.47.58-.76.73-.29.15-.63.22-1,.22-.61,0-1.13-.26-1.58-.77-.44-.51-.67-1.19-.67-2.04,0-.8.2-1.49.61-2.07s.98-.88,1.74-.88c.42,0,.77.09,1.05.27h0ZM40.91,42.97c.25.4.64.59,1.19.59.42,0,.77-.18,1.04-.55s.41-.89.41-1.58-.14-1.2-.42-1.53-.63-.5-1.04-.5c-.46,0-.83.18-1.12.53-.29.35-.43.88-.43,1.56,0,.58.12,1.08.37,1.47h0Z"/>
      <path d="M45.77,38.7h.91v.78c.22-.27.42-.46.59-.59.3-.21.65-.31,1.03-.31.44,0,.79.11,1.05.32.15.12.29.3.41.54.2-.29.44-.51.72-.65.28-.14.58-.21.93-.21.73,0,1.24.27,1.5.8.14.29.21.67.21,1.15v3.64h-.95v-3.8c0-.36-.09-.61-.27-.75s-.4-.2-.67-.2c-.36,0-.67.12-.93.36-.26.24-.39.64-.39,1.21v3.18h-.93v-3.57c0-.37-.04-.64-.13-.81-.14-.25-.4-.38-.78-.38-.35,0-.66.13-.95.4-.28.27-.43.76-.43,1.46v2.9h-.92s0-5.47,0-5.47Z"/>
      <path d="M54.48,36.67h.93v1.04h-.93v-1.04ZM54.48,38.73h.93v5.44h-.93v-5.44Z"/>
      <path d="M56.8,38.7h.87v.78c.26-.32.53-.55.82-.69s.61-.21.96-.21c.78,0,1.3.27,1.57.81.15.3.22.72.22,1.27v3.51h-.93v-3.45c0-.33-.05-.6-.15-.81-.16-.34-.46-.51-.89-.51-.22,0-.4.02-.54.07-.25.08-.47.22-.66.45-.15.18-.25.37-.3.56-.05.19-.07.47-.07.82v2.86h-.92v-5.47h.02Z"/>
      <path d="M62.62,36.67h.93v1.04h-.93v-1.04ZM62.62,38.73h.93v5.44h-.93v-5.44Z"/>
      <path d="M65.49,42.46c.03.31.11.54.23.71.24.3.65.44,1.23.44.35,0,.65-.07.92-.22.26-.15.4-.38.4-.69,0-.23-.11-.41-.32-.54-.13-.08-.4-.16-.8-.26l-.74-.18c-.47-.12-.82-.25-1.05-.39-.4-.25-.6-.59-.6-1.03,0-.52.19-.94.57-1.26s.89-.48,1.52-.48c.83,0,1.44.24,1.81.73.23.31.34.64.34.99h-.87c-.02-.21-.09-.39-.23-.56-.22-.24-.59-.36-1.12-.36-.36,0-.62.07-.81.2-.18.13-.27.31-.27.52,0,.24.12.43.36.57.14.08.34.16.61.22l.62.15c.67.16,1.12.31,1.35.46.36.23.54.6.54,1.11s-.19.91-.56,1.26c-.37.35-.94.53-1.71.53-.82,0-1.41-.18-1.75-.55s-.53-.83-.55-1.37c0,0,.88,0,.88,0Z"/>
      <path d="M70.36,37.18h.93v1.53h.87v.75h-.87v3.57c0,.19.06.32.19.38.07.04.19.06.36.06h.14c.05,0,.11,0,.18-.02v.73c-.11.03-.22.05-.33.07-.11,0-.24.02-.37.02-.43,0-.72-.11-.87-.33s-.23-.5-.23-.86v-3.62h-.74v-.75h.74s0-1.53,0-1.53Z"/>
      <path d="M73.1,38.7h.87v.94c.07-.18.25-.41.53-.67s.6-.4.96-.4h.09s.11,0,.21.02v.97c-.05,0-.1-.02-.15-.02h-.15c-.46,0-.82.15-1.07.45s-.37.64-.37,1.03v3.15h-.92s0-5.47,0-5.47Z"/>
      <path d="M79.49,40.86c.21-.03.35-.12.42-.26.04-.08.06-.2.06-.35,0-.31-.11-.54-.33-.68s-.54-.21-.96-.21c-.48,0-.82.13-1.02.39-.11.14-.19.36-.22.64h-.86c.02-.68.24-1.15.66-1.41s.91-.4,1.46-.4c.64,0,1.16.12,1.57.37.4.25.6.63.6,1.14v3.15c0,.1.02.17.06.23s.12.09.25.09h.14c.05,0,.11,0,.16-.02v.68c-.14.04-.25.07-.33.08-.08,0-.18,0-.31,0-.32,0-.55-.11-.69-.34-.08-.12-.13-.29-.16-.5-.19.25-.46.46-.81.64s-.74.27-1.16.27c-.51,0-.92-.15-1.24-.46-.32-.31-.48-.69-.48-1.16,0-.51.16-.9.48-1.18s.73-.45,1.25-.52l1.47-.18v-.02ZM77.55,43.35c.19.15.42.23.69.23.32,0,.64-.07.94-.22.51-.25.77-.65.77-1.22v-.74c-.11.07-.26.13-.43.18-.18.05-.35.08-.52.1l-.56.07c-.33.04-.58.11-.75.21-.28.16-.43.41-.43.76,0,.26.1.47.29.63Z"/>
      <path d="M82.56,37.18h.93v1.53h.87v.75h-.87v3.57c0,.19.06.32.19.38.07.04.19.06.36.06h.14c.05,0,.11,0,.18-.02v.73c-.11.03-.22.05-.33.07-.11,0-.24.02-.37.02-.43,0-.72-.11-.87-.33s-.23-.5-.23-.86v-3.62h-.74v-.75h.74s0-1.53,0-1.53Z"/>
      <path d="M85.28,36.67h.93v1.04h-.93v-1.04ZM85.28,38.73h.93v5.44h-.93v-5.44Z"/>
      <path d="M91.56,39.25c.48.47.73,1.16.73,2.07s-.21,1.61-.64,2.18-1.09.86-1.98.86c-.75,0-1.34-.25-1.78-.76s-.66-1.19-.66-2.05c0-.92.23-1.65.69-2.19.46-.54,1.08-.82,1.87-.82.7,0,1.29.23,1.77.7h0ZM90.99,42.88c.22-.46.34-.97.34-1.54,0-.51-.08-.92-.24-1.24-.26-.5-.7-.75-1.32-.75-.56,0-.96.21-1.21.64s-.38.95-.38,1.55.13,1.07.38,1.45.65.58,1.2.58c.6,0,1.02-.23,1.24-.69h0Z"/>
      <path d="M93.42,38.7h.87v.78c.26-.32.53-.55.82-.69s.61-.21.96-.21c.78,0,1.3.27,1.57.81.15.3.22.72.22,1.27v3.51h-.93v-3.45c0-.33-.05-.6-.15-.81-.16-.34-.46-.51-.89-.51-.22,0-.4.02-.54.07-.25.08-.47.22-.66.45-.15.18-.25.37-.3.56-.05.19-.07.47-.07.82v2.86h-.92v-5.47h.02Z"/>
    </g>
    <path d="M119.62,111.16H0v-44.67h119.62v44.67ZM.65,110.51h118.32v-43.36H.65v43.36Z"/>
    <rect x=".33" y="88.5" width="118.97" height=".65"/>
    <rect x="59.49" y="66.82" width=".65" height="22.01"/>
    <g>
      <path d="M3.22,70.05h1.12c.38,0,.68.14.89.41.19.25.28.57.28.95,0,.3-.06.57-.17.81-.2.43-.53.64-1.01.64h-1.12v-2.81h0ZM4.27,72.54c.13,0,.23-.01.31-.04.14-.05.26-.15.36-.29.07-.11.13-.26.16-.44.02-.11.03-.2.03-.29,0-.35-.07-.62-.2-.81-.14-.19-.35-.29-.65-.29h-.66v2.16h.66-.01Z"/>
      <path d="M6.07,70.05h2.04v.34h-1.67v.85h1.54v.33h-1.54v.95h1.7v.33h-2.07v-2.81h0Z"/>
      <path d="M8.9,71.96c0,.16.04.29.11.39.12.19.34.28.64.28.14,0,.26-.02.38-.06.22-.08.33-.22.33-.42,0-.15-.05-.26-.14-.33-.09-.06-.24-.12-.44-.17l-.37-.09c-.24-.06-.41-.12-.51-.19-.17-.12-.26-.29-.26-.53s.09-.46.26-.62.41-.24.72-.24c.29,0,.53.07.73.21s.3.37.3.68h-.36c-.02-.15-.06-.27-.12-.35-.11-.15-.3-.22-.57-.22-.22,0-.37.05-.46.14s-.14.2-.14.33c0,.14.06.24.17.3.07.04.24.09.5.15l.38.09c.18.04.33.1.43.18.17.13.26.32.26.57,0,.31-.11.53-.33.67-.22.13-.48.2-.77.2-.34,0-.61-.09-.8-.27-.19-.18-.29-.42-.28-.72h.36l-.02.02Z"/>
      <path d="M11.35,70.05h.38v2.81h-.38v-2.81Z"/>
      <path d="M14.23,70.13c.28.15.44.4.51.77h-.38c-.04-.21-.14-.35-.28-.45s-.32-.14-.53-.14c-.25,0-.47.1-.64.29s-.26.49-.26.87c0,.33.07.61.22.82s.38.31.7.31c.25,0,.46-.07.62-.22s.25-.39.25-.72h-.88v-.32h1.23v1.5h-.25l-.09-.36c-.13.14-.24.24-.34.29-.16.09-.37.14-.63.14-.33,0-.61-.11-.85-.32-.26-.27-.39-.64-.39-1.11s.13-.85.38-1.12c.24-.27.55-.4.93-.4.26,0,.49.05.68.15v.02Z"/>
      <path d="M15.41,70.05h.45l1.4,2.27v-2.27h.36v2.81h-.43l-1.42-2.27v2.27h-.36s0-2.81,0-2.81Z"/>
      <path d="M19.06,70.05h.43l1.02,2.81h-.42l-.29-.84h-1.11l-.3.84h-.39l1.06-2.81ZM19.68,71.71l-.43-1.24-.45,1.24h.88Z"/>
      <path d="M22.61,70.05v.33h-.95v2.48h-.39v-2.48h-.95v-.33h2.29Z"/>
      <path d="M23.05,70.05h.38v2.81h-.38v-2.81Z"/>
      <path d="M26.37,70.45c.19.25.28.57.28.96,0,.42-.11.77-.32,1.05-.25.33-.61.49-1.07.49-.43,0-.77-.14-1.02-.43-.22-.28-.33-.62-.33-1.04,0-.38.09-.71.28-.98.24-.35.6-.52,1.08-.52s.86.16,1.1.48h0ZM26.03,72.25c.15-.24.23-.52.23-.83,0-.33-.09-.6-.26-.8-.17-.2-.41-.3-.71-.3s-.53.1-.71.3c-.18.2-.28.49-.28.88,0,.31.08.58.24.79s.41.32.77.32.58-.12.73-.36h-.01Z"/>
      <path d="M27.1,70.05h.45l1.4,2.27v-2.27h.36v2.81h-.43l-1.42-2.27v2.27h-.36v-2.81Z"/>
    </g>
    <g>
      <path d="M63.44,70.06h.38v2.81h-.38v-2.81Z"/>
      <path d="M64.69,71.96c0,.16.04.29.11.39.12.19.34.28.64.28.14,0,.26-.02.38-.06.22-.08.33-.22.33-.42,0-.15-.05-.26-.14-.33-.09-.06-.24-.12-.44-.17l-.37-.09c-.24-.06-.41-.12-.51-.19-.17-.12-.26-.29-.26-.53s.09-.46.26-.62c.17-.16.41-.24.72-.24.29,0,.53.07.73.21s.3.37.3.68h-.36c-.02-.15-.06-.27-.12-.35-.11-.15-.3-.22-.57-.22-.22,0-.37.05-.46.14s-.14.2-.14.33c0,.14.06.24.17.3.07.04.24.09.5.15l.38.09c.18.04.33.1.43.18.17.13.26.32.26.57,0,.31-.11.53-.33.67-.22.13-.48.2-.77.2-.34,0-.61-.09-.8-.27s-.29-.42-.28-.72h.36l-.02.02Z"/>
      <path d="M67.31,71.96c0,.16.04.29.11.39.12.19.34.28.64.28.14,0,.26-.02.38-.06.22-.08.33-.22.33-.42,0-.15-.05-.26-.14-.33-.09-.06-.24-.12-.44-.17l-.37-.09c-.24-.06-.41-.12-.51-.19-.17-.12-.26-.29-.26-.53s.09-.46.26-.62c.17-.16.41-.24.72-.24.29,0,.53.07.73.21s.3.37.3.68h-.36c-.02-.15-.06-.27-.12-.35-.11-.15-.3-.22-.57-.22-.22,0-.37.05-.46.14s-.14.2-.14.33c0,.14.06.24.17.3.07.04.24.09.5.15l.38.09c.18.04.33.1.43.18.17.13.26.32.26.57,0,.31-.11.53-.33.67-.22.13-.48.2-.77.2-.34,0-.61-.09-.8-.27s-.29-.42-.28-.72h.36l-.02.02Z"/>
      <path d="M70.08,70.06v1.74c0,.2.04.37.12.51.11.2.31.31.58.31.33,0,.55-.11.66-.33.06-.12.09-.28.09-.48v-1.74h.38v1.58c0,.35-.05.61-.14.8-.17.34-.5.51-.97.51s-.8-.17-.97-.51c-.09-.19-.14-.45-.14-.8v-1.58h.39Z"/>
      <path d="M72.54,70.06h2.04v.34h-1.67v.85h1.54v.33h-1.54v.95h1.7v.33h-2.07v-2.81h0Z"/>
      <path d="M76.23,70.06h1.12c.38,0,.68.14.89.41.19.25.28.57.28.95,0,.3-.06.57-.17.81-.2.43-.53.64-1.01.64h-1.12v-2.81h.01ZM77.28,72.54c.13,0,.23-.01.31-.04.14-.05.26-.15.36-.29.07-.11.13-.26.16-.44.02-.11.03-.2.03-.29,0-.35-.07-.62-.2-.81-.14-.19-.35-.29-.65-.29h-.66v2.16h.66-.01Z"/>
      <path d="M79.86,70.06h.43l1.02,2.81h-.42l-.29-.84h-1.11l-.3.84h-.39s1.06-2.81,1.06-2.81ZM80.48,71.72l-.43-1.24-.45,1.24h.88Z"/>
      <path d="M83.41,70.06v.33h-.95v2.48h-.39v-2.48h-.95v-.33h2.29Z"/>
      <path d="M83.8,70.06h2.04v.34h-1.67v.85h1.54v.33h-1.54v.95h1.7v.33h-2.07v-2.81h0Z"/>
    </g>
    <g>
      <path class="cls-1" d="M3.69,91.99h.38v2.81h-.38v-2.81Z"/>
      <path class="cls-1" d="M4.71,91.99h1.12c.38,0,.68.14.89.41.19.25.28.57.28.95,0,.3-.06.57-.17.81-.2.43-.53.64-1.01.64h-1.12v-2.81h.01ZM5.76,94.47c.13,0,.23-.01.31-.04.14-.05.26-.15.36-.29.07-.11.13-.26.16-.44.02-.11.03-.2.03-.29,0-.35-.07-.62-.2-.81-.14-.19-.35-.29-.65-.29h-.66v2.16h.66-.01Z"/>
      <path class="cls-1" d="M8.61,91.99h.45l1.4,2.27v-2.27h.36v2.81h-.43l-1.42-2.27v2.27h-.36s0-2.81,0-2.81Z"/>
      <path class="cls-1" d="M13.76,92.39c.19.25.28.57.28.96,0,.42-.11.77-.32,1.05-.25.33-.61.49-1.07.49-.43,0-.77-.14-1.02-.43-.22-.28-.33-.62-.33-1.04,0-.38.09-.71.28-.98.24-.35.6-.52,1.08-.52s.86.16,1.1.48h0ZM13.43,94.18c.15-.24.23-.52.23-.83,0-.33-.09-.6-.26-.8-.17-.2-.41-.3-.71-.3s-.53.1-.71.3c-.18.2-.28.49-.28.88,0,.31.08.58.24.79s.41.32.77.32.58-.12.73-.36h0Z"/>
      <path class="cls-1" d="M14.53,94.38h.4v.42h-.4v-.42Z"/>
    </g>
    <g>
      <path d="M4.47,83.37v-.57h1.25v-4.34h-1.25v-.57h3.15v.57h-1.25v4.34h1.25v.57s-3.15,0-3.15,0Z"/>
      <path d="M10.8,83.46c-.39,0-.72-.07-1.01-.22s-.5-.35-.66-.61c-.15-.26-.23-.57-.24-.92h.69c0,.31.11.58.32.81s.51.34.9.34c.36,0,.64-.09.83-.26.2-.17.29-.39.29-.63,0-.2-.05-.38-.14-.51-.09-.14-.25-.26-.46-.37s-.5-.22-.85-.33c-.5-.15-.87-.36-1.1-.62-.23-.26-.35-.58-.35-.97,0-.26.07-.5.2-.71.14-.21.33-.37.59-.49s.57-.18.93-.18.65.06.91.19c.26.13.46.31.6.54s.22.49.22.79h-.69c0-.15-.04-.29-.12-.43s-.2-.26-.35-.35-.36-.14-.6-.14c-.29,0-.53.07-.72.21-.19.14-.29.33-.29.57,0,.18.04.34.13.46.09.13.23.24.43.34.2.1.47.21.81.33.32.1.59.23.82.36.23.14.4.31.53.51.12.2.18.46.18.76s-.08.56-.23.79-.36.41-.64.55c-.27.13-.59.2-.95.2h.02Z"/>
      <path d="M15.51,83.46c-.39,0-.72-.07-1.01-.22s-.5-.35-.66-.61c-.15-.26-.23-.57-.24-.92h.69c0,.31.11.58.32.81s.51.34.9.34c.36,0,.64-.09.83-.26.2-.17.29-.39.29-.63,0-.2-.05-.38-.14-.51-.09-.14-.25-.26-.46-.37s-.5-.22-.85-.33c-.5-.15-.87-.36-1.1-.62-.23-.26-.35-.58-.35-.97,0-.26.07-.5.2-.71.14-.21.33-.37.59-.49s.57-.18.93-.18.65.06.91.19c.26.13.46.31.6.54.14.23.22.49.22.79h-.69c0-.15-.04-.29-.12-.43s-.2-.26-.35-.35-.36-.14-.6-.14c-.29,0-.53.07-.72.21-.19.14-.29.33-.29.57,0,.18.04.34.13.46.09.13.23.24.43.34.2.1.47.21.81.33.32.1.59.23.82.36.23.14.4.31.53.51.12.2.18.46.18.76s-.08.56-.23.79-.36.41-.64.55c-.27.13-.59.2-.95.2h.02Z"/>
      <path d="M24.53,83.37v-4.89h-1.47v-.6h3.61v.6h-1.47v4.89h-.67Z"/>
      <path d="M27.86,83.37v-5.49h1.69c.42,0,.77.07,1.05.21.27.14.48.33.62.58s.2.52.2.83c0,.36-.09.68-.28.95s-.47.47-.85.58l1.19,2.34h-.78l-1.11-2.25h-1.07v2.25h-.66ZM28.52,80.52h1c.42,0,.73-.1.92-.29.2-.19.29-.44.29-.73,0-.31-.1-.56-.29-.75s-.5-.27-.94-.27h-1v2.04h.02Z"/>
      <path d="M32.18,83.37l1.72-5.49h.76l1.71,5.49h-.72l-.4-1.36h-1.94l-.4,1.36h-.73ZM34.26,78.81l-.79,2.65h1.62l-.79-2.65h-.04Z"/>
      <path d="M39.02,83.46c-.44,0-.83-.12-1.15-.35-.32-.24-.57-.56-.74-.99s-.25-.92-.25-1.5.08-1.07.25-1.49c.17-.43.42-.76.74-.99.32-.24.7-.35,1.15-.35.56,0,1.02.16,1.36.47.35.31.55.73.6,1.24h-.73c-.05-.31-.18-.57-.39-.78s-.49-.31-.85-.31c-.46,0-.81.2-1.07.59s-.39.94-.39,1.63.13,1.24.39,1.63.62.59,1.07.59c.37,0,.66-.1.86-.3.2-.2.33-.46.38-.77h.73c-.08.52-.29.93-.62,1.24s-.78.45-1.34.45h0Z"/>
      <path d="M41.97,83.37v-5.49h.66v2.56l2.15-2.56h.84l-2.31,2.73v.03l2.35,2.73h-.85l-2.16-2.52v2.52h-.68Z"/>
      <path d="M46.71,83.37v-5.49h3.43v.6h-2.77v1.83h2.53v.6h-2.53v1.88h2.77v.6h-3.43v-.02Z"/>
      <path d="M51.39,83.37v-5.49h1.69c.42,0,.77.07,1.05.21.27.14.48.33.62.58s.2.52.2.83c0,.36-.09.68-.28.95s-.47.47-.85.58l1.19,2.34h-.78l-1.11-2.25h-1.07v2.25h-.66ZM52.04,80.52h1c.42,0,.73-.1.92-.29.2-.19.29-.44.29-.73,0-.31-.1-.56-.29-.75s-.5-.27-.94-.27h-1v2.04h.02Z"/>
    </g>
    <g>
      <path d="M68.72,83.45v-.6h1.42v-4.12l-1.34.26v-.5l1.56-.53h.44v4.89h1.5v.6h-3.58Z"/>
      <path d="M73.42,83.45v-.6h1.42v-4.12l-1.34.26v-.5l1.56-.53h.44v4.89h1.5v.6h-3.58Z"/>
      <path d="M78.23,84.15l2.71-6.67h.69l-2.72,6.67h-.68Z"/>
      <path d="M84.71,83.54c-.36,0-.68-.07-.97-.2-.28-.13-.51-.33-.69-.58-.17-.26-.27-.57-.28-.94h.67c.01.31.13.58.35.8s.53.33.92.33.68-.1.89-.29c.21-.2.31-.46.31-.8,0-.24-.06-.43-.18-.58s-.28-.27-.48-.34c-.2-.08-.42-.11-.67-.11h-.48v-.6h.42c.36,0,.64-.08.85-.23s.32-.37.32-.67c0-.25-.08-.45-.25-.6-.17-.16-.41-.24-.73-.24s-.55.08-.74.25c-.19.17-.3.39-.32.66h-.66c.01-.3.09-.56.24-.79s.35-.41.6-.54.55-.2.88-.2c.36,0,.66.06.91.19.24.12.43.29.55.51s.19.45.19.7c0,.27-.08.51-.25.72s-.37.35-.6.44v.05c.31.09.56.25.77.48s.31.53.31.9c0,.32-.07.61-.22.86s-.36.46-.64.61-.61.23-1,.23l-.02-.02Z"/>
      <path d="M89.34,83.54c-.41,0-.78-.11-1.09-.34-.32-.23-.56-.56-.74-.98-.18-.42-.26-.93-.26-1.51s.09-1.09.26-1.51c.18-.42.42-.75.74-.98s.68-.35,1.09-.35.78.12,1.1.35c.31.23.56.56.73.98.17.42.26.93.26,1.51s-.09,1.09-.26,1.51c-.18.42-.42.75-.73.98-.31.23-.68.34-1.1.34ZM87.92,80.7c0,.36.04.68.11.96s.18.52.32.72l1.52-3.77c-.16-.09-.34-.13-.53-.13-.28,0-.52.09-.74.27-.21.18-.38.44-.5.77-.12.33-.18.73-.18,1.19h0ZM89.34,82.94c.28,0,.52-.09.74-.27s.38-.44.5-.77.18-.73.18-1.19c0-.36-.04-.68-.11-.96-.08-.29-.18-.52-.32-.72l-1.53,3.78c.17.09.35.13.54.13Z"/>
      <path d="M92.34,84.15l2.71-6.67h.69l-2.72,6.67h-.68Z"/>
      <path d="M96.98,83.45v-.52c.56-.45,1.06-.86,1.48-1.24.42-.38.75-.74.98-1.09s.34-.71.34-1.07c0-.33-.09-.59-.28-.78s-.44-.29-.75-.29c-.24,0-.44.05-.61.16-.17.1-.29.24-.38.42-.08.17-.13.36-.13.56h-.65c0-.36.08-.67.24-.93s.36-.46.63-.59c.26-.14.56-.2.9-.2.54,0,.96.15,1.25.45s.45.7.45,1.2c0,.33-.07.64-.21.94s-.33.59-.56.87c-.24.28-.5.54-.79.8s-.59.5-.89.74h2.6v.59h-3.62v-.02Z"/>
      <path d="M103.46,83.54c-.41,0-.78-.11-1.09-.34-.32-.23-.56-.56-.74-.98-.18-.42-.26-.93-.26-1.51s.09-1.09.26-1.51c.18-.42.42-.75.74-.98s.68-.35,1.09-.35.78.12,1.1.35c.31.23.56.56.73.98.17.42.26.93.26,1.51s-.09,1.09-.26,1.51c-.18.42-.42.75-.73.98-.31.23-.68.34-1.1.34ZM102.04,80.7c0,.36.04.68.11.96s.18.52.32.72l1.52-3.77c-.16-.09-.34-.13-.53-.13-.28,0-.52.09-.74.27-.21.18-.38.44-.5.77-.12.33-.18.73-.18,1.19h0ZM103.46,82.94c.28,0,.52-.09.74-.27s.38-.44.5-.77.18-.73.18-1.19c0-.36-.04-.68-.11-.96-.08-.29-.18-.52-.32-.72l-1.53,3.78c.17.09.35.13.54.13Z"/>
      <path d="M106.39,83.45v-.52c.56-.45,1.06-.86,1.48-1.24.42-.38.75-.74.98-1.09s.34-.71.34-1.07c0-.33-.09-.59-.28-.78s-.44-.29-.75-.29c-.24,0-.44.05-.61.16-.17.1-.29.24-.38.42-.08.17-.13.36-.13.56h-.65c0-.36.08-.67.24-.93s.36-.46.63-.59c.26-.14.56-.2.9-.2.54,0,.96.15,1.25.45s.45.7.45,1.2c0,.33-.07.64-.21.94s-.33.59-.56.87c-.24.28-.5.54-.79.8s-.59.5-.89.74h2.6v.59h-3.62v-.02Z"/>
      <path d="M112.87,83.54c-.38,0-.7-.07-.97-.21-.27-.14-.49-.33-.64-.57-.16-.24-.25-.51-.28-.82h.67c.05.3.18.54.4.73s.5.28.83.28c.39,0,.7-.13.93-.38.22-.25.34-.57.34-.96,0-.41-.11-.73-.34-.96s-.53-.35-.89-.35c-.29,0-.54.07-.75.2s-.37.3-.5.51h-.63l.47-3.03h2.93v.6h-2.42l-.29,1.63h.04c.12-.13.28-.25.49-.34.21-.1.45-.15.72-.15.36,0,.68.08.94.23.27.15.48.37.63.66.15.29.23.62.23,1,0,.36-.07.68-.22.98-.15.29-.37.53-.65.71s-.63.27-1.03.27v-.03Z"/>
    </g>
    <g>
      <path d="M25.3,102.68v-.57h1.25v-4.34h-1.25v-.57h3.15v.57h-1.25v4.34h1.25v.57s-3.15,0-3.15,0Z"/>
      <path d="M31.63,102.77c-.39,0-.72-.07-1.01-.22s-.5-.35-.66-.61c-.15-.26-.23-.57-.24-.92h.69c0,.31.11.58.32.81s.51.34.9.34c.36,0,.64-.09.83-.26.2-.17.29-.39.29-.63,0-.2-.05-.38-.14-.51-.09-.14-.25-.26-.46-.37s-.5-.22-.85-.33c-.5-.15-.87-.36-1.1-.62s-.35-.58-.35-.97c0-.26.07-.5.2-.71.14-.21.33-.37.59-.49s.57-.18.93-.18.65.06.91.19c.26.13.46.31.6.54s.22.49.22.79h-.69c0-.15-.04-.29-.12-.43-.08-.14-.2-.26-.35-.35s-.36-.14-.6-.14c-.29,0-.53.07-.72.21-.19.14-.29.33-.29.57,0,.18.04.34.13.46.09.13.23.24.43.34s.47.21.81.33c.32.1.59.23.82.36.23.14.4.31.53.51.12.2.18.46.18.76s-.08.56-.23.79c-.15.23-.36.41-.64.55-.27.13-.59.2-.95.2h.02Z"/>
      <path d="M36.34,102.77c-.39,0-.72-.07-1.01-.22-.29-.15-.5-.35-.66-.61-.15-.26-.23-.57-.24-.92h.69c0,.31.11.58.32.81s.51.34.9.34c.36,0,.64-.09.83-.26.2-.17.29-.39.29-.63,0-.2-.05-.38-.14-.51-.09-.14-.25-.26-.46-.37s-.5-.22-.85-.33c-.5-.15-.87-.36-1.1-.62s-.35-.58-.35-.97c0-.26.07-.5.2-.71.14-.21.33-.37.59-.49s.57-.18.93-.18.65.06.91.19c.26.13.46.31.6.54s.22.49.22.79h-.69c0-.15-.04-.29-.12-.43-.08-.14-.2-.26-.35-.35s-.36-.14-.6-.14c-.29,0-.53.07-.72.21-.19.14-.29.33-.29.57,0,.18.04.34.13.46.09.13.23.24.43.34s.47.21.81.33c.32.1.59.23.82.36.23.14.4.31.53.51.12.2.18.46.18.76s-.08.56-.23.79c-.15.23-.36.41-.64.55-.27.13-.59.2-.95.2h.02Z"/>
      <path d="M40.66,102.68v-4.89h-1.47v-.6h3.61v.6h-1.47v4.89h-.67Z"/>
      <path d="M43.89,102.68v-.6h1.42v-4.12l-1.34.26v-.5l1.56-.53h.44v4.89h1.5v.6h-3.58Z"/>
      <path d="M48.6,102.68v-.6h1.42v-4.12l-1.34.26v-.5l1.56-.53h.44v4.89h1.5v.6h-3.58Z"/>
      <path d="M55.17,102.77c-.36,0-.68-.07-.97-.2-.28-.13-.51-.33-.69-.58-.17-.26-.27-.57-.28-.94h.67c0,.31.13.58.35.8.22.22.53.33.92.33s.68-.1.89-.29c.21-.2.31-.46.31-.8,0-.24-.06-.43-.18-.58s-.28-.27-.48-.34c-.2-.08-.42-.11-.67-.11h-.48v-.6h.42c.36,0,.64-.08.85-.23s.32-.37.32-.67c0-.25-.08-.45-.25-.6-.17-.16-.41-.24-.73-.24s-.55.08-.74.25c-.19.17-.3.39-.32.66h-.66c0-.3.09-.56.24-.79s.35-.41.6-.54.55-.2.88-.2c.36,0,.66.06.91.19.24.12.43.29.55.51s.19.45.19.7c0,.27-.08.51-.25.72s-.37.35-.6.44v.05c.31.09.56.25.77.48s.31.53.31.9c0,.32-.07.61-.22.86s-.36.46-.64.61-.61.23-1,.23l-.02-.02Z"/>
      <path d="M59.81,102.77c-.41,0-.78-.11-1.09-.34-.32-.23-.56-.56-.74-.98-.18-.42-.26-.93-.26-1.51s.09-1.09.26-1.51c.18-.42.42-.75.74-.98.32-.23.68-.35,1.09-.35s.78.12,1.1.35c.31.23.56.56.73.98.17.42.26.93.26,1.51s-.09,1.09-.26,1.51c-.18.42-.42.75-.73.98s-.68.34-1.1.34ZM58.39,99.94c0,.36.04.68.11.96s.18.52.32.72l1.52-3.77c-.16-.09-.34-.13-.53-.13-.28,0-.52.09-.74.27-.21.18-.38.44-.5.77-.12.33-.18.73-.18,1.19h0ZM59.81,102.17c.28,0,.52-.09.74-.27s.38-.44.5-.77.18-.73.18-1.19c0-.36-.04-.68-.11-.96-.08-.29-.18-.52-.32-.72l-1.53,3.78c.17.09.35.13.54.13Z"/>
      <path d="M62.74,102.68v-.52c.56-.45,1.06-.86,1.48-1.24s.75-.74.98-1.09.34-.71.34-1.07c0-.33-.09-.59-.28-.78s-.44-.29-.75-.29c-.24,0-.44.05-.61.16-.17.1-.29.24-.38.42-.08.17-.13.36-.13.56h-.65c0-.36.08-.67.24-.93s.36-.46.63-.59c.26-.14.56-.2.9-.2.54,0,.96.15,1.25.45s.45.7.45,1.2c0,.33-.07.64-.21.94s-.33.59-.56.87c-.24.28-.5.54-.79.8s-.59.5-.89.74h2.6v.59h-3.62v-.02Z"/>
      <path d="M69.22,102.77c-.41,0-.78-.11-1.09-.34-.32-.23-.56-.56-.74-.98-.18-.42-.26-.93-.26-1.51s.09-1.09.26-1.51c.18-.42.42-.75.74-.98s.68-.35,1.09-.35.78.12,1.1.35c.31.23.56.56.73.98.17.42.26.93.26,1.51s-.09,1.09-.26,1.51c-.18.42-.42.75-.73.98-.31.23-.68.34-1.1.34ZM67.8,99.94c0,.36.04.68.11.96s.18.52.32.72l1.52-3.77c-.16-.09-.34-.13-.53-.13-.28,0-.52.09-.74.27-.21.18-.38.44-.5.77-.12.33-.18.73-.18,1.19h0ZM69.22,102.17c.28,0,.52-.09.74-.27s.38-.44.5-.77.18-.73.18-1.19c0-.36-.04-.68-.11-.96-.08-.29-.18-.52-.32-.72l-1.53,3.78c.17.09.35.13.54.13Z"/>
      <path d="M72.15,102.68v-.52c.56-.45,1.06-.86,1.48-1.24.42-.38.75-.74.98-1.09s.34-.71.34-1.07c0-.33-.09-.59-.28-.78s-.44-.29-.75-.29c-.24,0-.44.05-.61.16-.17.1-.29.24-.38.42-.08.17-.13.36-.13.56h-.65c0-.36.08-.67.24-.93s.36-.46.63-.59c.26-.14.56-.2.9-.2.54,0,.96.15,1.25.45s.45.7.45,1.2c0,.33-.07.64-.21.94s-.33.59-.56.87c-.24.28-.5.54-.79.8s-.59.5-.89.74h2.6v.59h-3.62v-.02Z"/>
      <path d="M78.63,102.77c-.38,0-.7-.07-.97-.21-.27-.14-.49-.33-.64-.57-.16-.24-.25-.51-.28-.82h.67c.05.3.18.54.4.73s.5.28.83.28c.39,0,.7-.13.93-.38.22-.25.34-.57.34-.96,0-.41-.11-.73-.34-.96s-.53-.35-.89-.35c-.29,0-.54.07-.75.2s-.37.3-.5.51h-.63l.47-3.03h2.93v.6h-2.42l-.29,1.63h.04c.12-.13.28-.25.49-.34.21-.1.45-.15.72-.15.36,0,.68.08.94.23.27.15.48.37.63.66.15.29.23.62.23,1,0,.36-.07.68-.22.98-.15.29-.37.53-.65.71s-.63.27-1.03.27v-.03Z"/>
      <path d="M82.04,100.22v-.56h2.59v.56h-2.59Z"/>
      <path d="M86.4,102.68v-5.49h3.43v.61h-2.77v1.91h2.37v.59h-2.37v2.38h-.66Z"/>
      <path d="M92.69,102.77c-.39,0-.73-.11-1.04-.34s-.54-.55-.71-.98c-.17-.42-.25-.93-.25-1.52s.09-1.09.26-1.51c.17-.42.42-.75.73-.98.32-.23.69-.35,1.13-.35.52,0,.94.15,1.27.46.33.3.52.71.58,1.22h-.73c-.05-.31-.17-.57-.36-.76-.19-.2-.44-.29-.76-.29-.45,0-.8.2-1.06.59-.26.39-.38.94-.38,1.63s.13,1.25.38,1.64c.26.39.59.58,1,.58.29,0,.53-.09.72-.26.19-.17.33-.4.43-.67s.15-.56.16-.85h-1.22v-.56h1.9v2.88h-.6l-.05-.83h-.03c-.11.28-.27.51-.48.67-.21.17-.5.25-.87.25l-.02-.02Z"/>
    </g>
  </g>
  <g>
    <path d="M6.13,62.18c-.04-.85-.1-1.86-.09-2.62h-.03c-.21.71-.46,1.47-.77,2.31l-1.07,2.94h-.59l-.98-2.89c-.29-.86-.53-1.64-.7-2.36h-.02c-.02.76-.06,1.77-.12,2.68l-.16,2.6h-.75l.42-6.07h1l1.04,2.94c.25.75.46,1.41.61,2.04h.03c.15-.61.37-1.28.64-2.04l1.08-2.94h1l.38,6.07h-.77l-.15-2.67Z"/>
    <path d="M9.03,58.78v6.07h-.78v-6.07h.78Z"/>
    <path d="M10.29,63.89c.35.22.86.4,1.4.4.8,0,1.27-.42,1.27-1.04,0-.57-.32-.89-1.14-1.21-.99-.35-1.6-.86-1.6-1.72,0-.95.78-1.65,1.96-1.65.62,0,1.07.14,1.34.3l-.22.64c-.2-.11-.6-.29-1.15-.29-.83,0-1.14.5-1.14.91,0,.57.37.85,1.21,1.17,1.03.4,1.55.89,1.55,1.78,0,.94-.69,1.75-2.12,1.75-.59,0-1.22-.17-1.55-.39l.2-.66Z"/>
    <path d="M14.73,63.89c.35.22.86.4,1.4.4.8,0,1.27-.42,1.27-1.04,0-.57-.32-.89-1.14-1.21-.99-.35-1.6-.86-1.6-1.72,0-.95.78-1.65,1.96-1.65.62,0,1.07.14,1.34.3l-.22.64c-.2-.11-.6-.29-1.15-.29-.83,0-1.14.5-1.14.91,0,.57.37.85,1.21,1.17,1.03.4,1.55.89,1.55,1.78,0,.94-.69,1.75-2.12,1.75-.59,0-1.22-.17-1.55-.39l.2-.66Z"/>
    <path d="M20.06,58.78v6.07h-.78v-6.07h.78Z"/>
    <path d="M26.61,61.75c0,2.09-1.27,3.2-2.82,3.2s-2.73-1.24-2.73-3.08c0-1.93,1.2-3.19,2.82-3.19s2.73,1.27,2.73,3.07ZM21.9,61.85c0,1.3.7,2.46,1.94,2.46s1.94-1.14,1.94-2.52c0-1.21-.63-2.47-1.94-2.47s-1.94,1.2-1.94,2.53Z"/>
    <path d="M27.63,64.85v-6.07h.86l1.94,3.07c.45.71.8,1.35,1.09,1.97h.02c-.07-.82-.09-1.56-.09-2.5v-2.54h.74v6.07h-.79l-1.93-3.08c-.42-.67-.83-1.37-1.13-2.03h-.03c.04.77.06,1.5.06,2.51v2.59h-.74Z"/>
    <path d="M39.7,64.65c-.29.14-.86.29-1.6.29-1.71,0-3-1.08-3-3.07s1.29-3.19,3.17-3.19c.76,0,1.23.16,1.44.27l-.19.64c-.3-.14-.72-.25-1.22-.25-1.42,0-2.37.91-2.37,2.5,0,1.49.86,2.44,2.33,2.44.48,0,.96-.1,1.28-.25l.16.62Z"/>
    <path d="M45.67,61.75c0,2.09-1.27,3.2-2.82,3.2s-2.73-1.24-2.73-3.08c0-1.93,1.2-3.19,2.82-3.19s2.73,1.27,2.73,3.07ZM40.96,61.85c0,1.3.7,2.46,1.94,2.46s1.94-1.14,1.94-2.52c0-1.21-.63-2.47-1.94-2.47s-1.94,1.2-1.94,2.53Z"/>
    <path d="M46.69,64.85v-6.07h.86l1.94,3.07c.45.71.8,1.35,1.09,1.97h.02c-.07-.82-.09-1.56-.09-2.5v-2.54h.74v6.07h-.79l-1.93-3.08c-.42-.67-.83-1.37-1.13-2.03h-.03c.04.77.06,1.5.06,2.51v2.59h-.74Z"/>
    <path d="M53.76,59.45h-1.85v-.67h4.49v.67h-1.85v5.4h-.79v-5.4Z"/>
    <path d="M57.08,58.86c.4-.08.96-.13,1.5-.13.84,0,1.38.15,1.76.5.31.27.48.68.48,1.15,0,.8-.5,1.33-1.14,1.55v.03c.47.16.75.59.89,1.22.2.85.34,1.43.47,1.67h-.81c-.1-.17-.23-.69-.41-1.45-.18-.84-.5-1.15-1.21-1.18h-.74v2.63h-.78v-5.99ZM57.87,61.63h.8c.84,0,1.37-.46,1.37-1.15,0-.78-.57-1.12-1.4-1.13-.38,0-.65.04-.77.07v2.21Z"/>
    <path d="M67.14,61.75c0,2.09-1.27,3.2-2.82,3.2s-2.73-1.24-2.73-3.08c0-1.93,1.2-3.19,2.82-3.19s2.73,1.27,2.73,3.07ZM62.43,61.85c0,1.3.7,2.46,1.94,2.46s1.95-1.14,1.95-2.52c0-1.21-.63-2.47-1.94-2.47s-1.94,1.2-1.94,2.53Z"/>
    <path d="M68.15,58.78h.78v5.41h2.59v.66h-3.38v-6.07Z"/>
    <path d="M78.55,64.65c-.29.14-.86.29-1.6.29-1.71,0-3-1.08-3-3.07s1.29-3.19,3.17-3.19c.76,0,1.23.16,1.44.27l-.19.64c-.3-.14-.72-.25-1.22-.25-1.42,0-2.37.91-2.37,2.5,0,1.49.86,2.44,2.33,2.44.48,0,.96-.1,1.28-.25l.16.62Z"/>
    <path d="M82.67,62h-2.36v2.19h2.63v.66h-3.41v-6.07h3.28v.66h-2.49v1.92h2.36v.65Z"/>
    <path d="M83.96,64.85v-6.07h.85l1.95,3.07c.45.71.8,1.35,1.09,1.97h.02c-.07-.82-.09-1.56-.09-2.5v-2.54h.74v6.07h-.79l-1.93-3.08c-.42-.67-.83-1.37-1.13-2.03h-.03c.04.77.06,1.5.06,2.51v2.59h-.74Z"/>
    <path d="M91.03,59.45h-1.85v-.67h4.49v.67h-1.85v5.4h-.79v-5.4Z"/>
    <path d="M97.49,62h-2.36v2.19h2.63v.66h-3.41v-6.07h3.28v.66h-2.49v1.92h2.36v.65Z"/>
    <path d="M98.78,58.86c.4-.08.96-.13,1.5-.13.84,0,1.38.15,1.76.5.31.27.48.68.48,1.15,0,.8-.5,1.33-1.14,1.55v.03c.47.16.75.59.89,1.22.2.85.34,1.43.47,1.67h-.81c-.1-.17-.23-.69-.41-1.45-.18-.84-.5-1.15-1.21-1.18h-.74v2.63h-.78v-5.99ZM99.56,61.63h.8c.84,0,1.37-.46,1.37-1.15,0-.78-.57-1.12-1.4-1.13-.38,0-.65.04-.77.07v2.21Z"/>
  </g>
</svg>